<svg width="1865" height="329" viewBox="0 0 1865 329" fill="none" xmlns="http://www.w3.org/2000/svg">
<g filter="url(#filter0_d_903_41)">
<rect x="521" y="100" width="300" height="120" rx="4" fill="#CED5EE"/>
<rect x="521.5" y="100.5" width="299" height="119" rx="3.5" stroke="black"/>
</g>
<path d="M583.494 150.168C581.942 150.168 580.51 149.808 579.198 149.088C577.902 148.352 576.87 147.336 576.102 146.04C575.35 144.728 574.974 143.256 574.974 141.624C574.974 139.992 575.35 138.528 576.102 137.232C576.87 135.936 577.902 134.928 579.198 134.208C580.51 133.472 581.942 133.104 583.494 133.104C585.062 133.104 586.494 133.472 587.79 134.208C589.102 134.928 590.134 135.936 590.886 137.232C591.638 138.528 592.014 139.992 592.014 141.624C592.014 143.256 591.638 144.728 590.886 146.04C590.134 147.336 589.102 148.352 587.79 149.088C586.494 149.808 585.062 150.168 583.494 150.168ZM583.494 147.792C584.598 147.792 585.582 147.544 586.446 147.048C587.31 146.536 587.982 145.816 588.462 144.888C588.958 143.944 589.206 142.856 589.206 141.624C589.206 140.392 588.958 139.312 588.462 138.384C587.982 137.456 587.31 136.744 586.446 136.248C585.582 135.752 584.598 135.504 583.494 135.504C582.39 135.504 581.406 135.752 580.542 136.248C579.678 136.744 578.998 137.456 578.502 138.384C578.022 139.312 577.782 140.392 577.782 141.624C577.782 142.856 578.022 143.944 578.502 144.888C578.998 145.816 579.678 146.536 580.542 147.048C581.406 147.544 582.39 147.792 583.494 147.792ZM597.442 138.72C597.906 138.112 598.538 137.6 599.338 137.184C600.138 136.768 601.042 136.56 602.05 136.56C603.202 136.56 604.25 136.848 605.194 137.424C606.154 137.984 606.906 138.776 607.45 139.8C607.994 140.824 608.266 142 608.266 143.328C608.266 144.656 607.994 145.848 607.45 146.904C606.906 147.944 606.154 148.76 605.194 149.352C604.25 149.928 603.202 150.216 602.05 150.216C601.042 150.216 600.146 150.016 599.362 149.616C598.578 149.2 597.938 148.688 597.442 148.08V156.288H594.706V136.776H597.442V138.72ZM605.482 143.328C605.482 142.416 605.29 141.632 604.906 140.976C604.538 140.304 604.042 139.8 603.418 139.464C602.81 139.112 602.154 138.936 601.45 138.936C600.762 138.936 600.106 139.112 599.482 139.464C598.874 139.816 598.378 140.328 597.994 141C597.626 141.672 597.442 142.464 597.442 143.376C597.442 144.288 597.626 145.088 597.994 145.776C598.378 146.448 598.874 146.96 599.482 147.312C600.106 147.664 600.762 147.84 601.45 147.84C602.154 147.84 602.81 147.664 603.418 147.312C604.042 146.944 604.538 146.416 604.906 145.728C605.29 145.04 605.482 144.24 605.482 143.328ZM623.092 143.064C623.092 143.56 623.06 144.008 622.996 144.408H612.892C612.972 145.464 613.364 146.312 614.068 146.952C614.772 147.592 615.636 147.912 616.66 147.912C618.132 147.912 619.172 147.296 619.78 146.064H622.732C622.332 147.28 621.604 148.28 620.548 149.064C619.508 149.832 618.212 150.216 616.66 150.216C615.396 150.216 614.26 149.936 613.252 149.376C612.26 148.8 611.476 148 610.9 146.976C610.34 145.936 610.06 144.736 610.06 143.376C610.06 142.016 610.332 140.824 610.876 139.8C611.436 138.76 612.212 137.96 613.204 137.4C614.212 136.84 615.364 136.56 616.66 136.56C617.908 136.56 619.02 136.832 619.996 137.376C620.972 137.92 621.732 138.688 622.276 139.68C622.82 140.656 623.092 141.784 623.092 143.064ZM620.236 142.2C620.22 141.192 619.86 140.384 619.156 139.776C618.452 139.168 617.58 138.864 616.54 138.864C615.596 138.864 614.788 139.168 614.116 139.776C613.444 140.368 613.044 141.176 612.916 142.2H620.236ZM632.456 136.56C633.496 136.56 634.424 136.776 635.24 137.208C636.072 137.64 636.72 138.28 637.184 139.128C637.648 139.976 637.88 141 637.88 142.2V150H635.168V142.608C635.168 141.424 634.872 140.52 634.28 139.896C633.688 139.256 632.88 138.936 631.856 138.936C630.832 138.936 630.016 139.256 629.408 139.896C628.816 140.52 628.52 141.424 628.52 142.608V150H625.784V136.776H628.52V138.288C628.968 137.744 629.536 137.32 630.224 137.016C630.928 136.712 631.672 136.56 632.456 136.56ZM652.146 133.32V135.552H647.706V150H644.97V135.552H640.506V133.32H652.146ZM667.037 143.064C667.037 143.56 667.005 144.008 666.941 144.408H656.837C656.917 145.464 657.309 146.312 658.013 146.952C658.717 147.592 659.581 147.912 660.605 147.912C662.077 147.912 663.117 147.296 663.725 146.064H666.677C666.277 147.28 665.549 148.28 664.493 149.064C663.453 149.832 662.157 150.216 660.605 150.216C659.341 150.216 658.205 149.936 657.197 149.376C656.205 148.8 655.421 148 654.845 146.976C654.285 145.936 654.005 144.736 654.005 143.376C654.005 142.016 654.277 140.824 654.821 139.8C655.381 138.76 656.157 137.96 657.149 137.4C658.157 136.84 659.309 136.56 660.605 136.56C661.853 136.56 662.965 136.832 663.941 137.376C664.917 137.92 665.677 138.688 666.221 139.68C666.765 140.656 667.037 141.784 667.037 143.064ZM664.181 142.2C664.165 141.192 663.805 140.384 663.101 139.776C662.397 139.168 661.525 138.864 660.485 138.864C659.541 138.864 658.733 139.168 658.061 139.776C657.389 140.368 656.989 141.176 656.861 142.2H664.181ZM672.466 132.24V150H669.73V132.24H672.466ZM688.178 143.064C688.178 143.56 688.146 144.008 688.082 144.408H677.978C678.058 145.464 678.45 146.312 679.154 146.952C679.858 147.592 680.722 147.912 681.746 147.912C683.218 147.912 684.258 147.296 684.866 146.064H687.818C687.418 147.28 686.69 148.28 685.634 149.064C684.594 149.832 683.298 150.216 681.746 150.216C680.482 150.216 679.346 149.936 678.338 149.376C677.346 148.8 676.562 148 675.986 146.976C675.426 145.936 675.146 144.736 675.146 143.376C675.146 142.016 675.418 140.824 675.962 139.8C676.522 138.76 677.298 137.96 678.29 137.4C679.298 136.84 680.45 136.56 681.746 136.56C682.994 136.56 684.106 136.832 685.082 137.376C686.058 137.92 686.818 138.688 687.362 139.68C687.906 140.656 688.178 141.784 688.178 143.064ZM685.322 142.2C685.306 141.192 684.946 140.384 684.242 139.776C683.538 139.168 682.666 138.864 681.626 138.864C680.682 138.864 679.874 139.168 679.202 139.776C678.53 140.368 678.13 141.176 678.002 142.2H685.322ZM706.878 136.56C707.918 136.56 708.846 136.776 709.662 137.208C710.494 137.64 711.142 138.28 711.606 139.128C712.086 139.976 712.326 141 712.326 142.2V150H709.614V142.608C709.614 141.424 709.318 140.52 708.726 139.896C708.134 139.256 707.326 138.936 706.302 138.936C705.278 138.936 704.462 139.256 703.854 139.896C703.262 140.52 702.966 141.424 702.966 142.608V150H700.254V142.608C700.254 141.424 699.958 140.52 699.366 139.896C698.774 139.256 697.966 138.936 696.942 138.936C695.918 138.936 695.102 139.256 694.494 139.896C693.902 140.52 693.606 141.424 693.606 142.608V150H690.87V136.776H693.606V138.288C694.054 137.744 694.622 137.32 695.31 137.016C695.998 136.712 696.734 136.56 697.518 136.56C698.574 136.56 699.518 136.784 700.35 137.232C701.182 137.68 701.822 138.328 702.27 139.176C702.67 138.376 703.294 137.744 704.142 137.28C704.99 136.8 705.902 136.56 706.878 136.56ZM727.928 143.064C727.928 143.56 727.896 144.008 727.832 144.408H717.728C717.808 145.464 718.2 146.312 718.904 146.952C719.608 147.592 720.472 147.912 721.496 147.912C722.968 147.912 724.008 147.296 724.616 146.064H727.568C727.168 147.28 726.44 148.28 725.384 149.064C724.344 149.832 723.048 150.216 721.496 150.216C720.232 150.216 719.096 149.936 718.088 149.376C717.096 148.8 716.312 148 715.736 146.976C715.176 145.936 714.896 144.736 714.896 143.376C714.896 142.016 715.168 140.824 715.712 139.8C716.272 138.76 717.048 137.96 718.04 137.4C719.048 136.84 720.2 136.56 721.496 136.56C722.744 136.56 723.856 136.832 724.832 137.376C725.808 137.92 726.568 138.688 727.112 139.68C727.656 140.656 727.928 141.784 727.928 143.064ZM725.072 142.2C725.056 141.192 724.696 140.384 723.992 139.776C723.288 139.168 722.416 138.864 721.376 138.864C720.432 138.864 719.624 139.168 718.952 139.776C718.28 140.368 717.88 141.176 717.752 142.2H725.072ZM733.812 139.008V146.328C733.812 146.824 733.924 147.184 734.148 147.408C734.388 147.616 734.788 147.72 735.348 147.72H737.028V150H734.868C733.636 150 732.692 149.712 732.036 149.136C731.38 148.56 731.052 147.624 731.052 146.328V139.008H729.492V136.776H731.052V133.488H733.812V136.776H737.028V139.008H733.812ZM742.286 138.696C742.686 138.024 743.214 137.504 743.87 137.136C744.542 136.752 745.334 136.56 746.246 136.56V139.392H745.55C744.478 139.392 743.662 139.664 743.102 140.208C742.558 140.752 742.286 141.696 742.286 143.04V150H739.55V136.776H742.286V138.696ZM760.665 136.776L752.553 156.216H749.721L752.409 149.784L747.201 136.776H750.249L753.969 146.856L757.833 136.776H760.665ZM616.927 177.624C616.927 175.992 617.303 174.528 618.055 173.232C618.823 171.936 619.855 170.928 621.151 170.208C622.463 169.472 623.895 169.104 625.447 169.104C627.223 169.104 628.799 169.544 630.175 170.424C631.567 171.288 632.575 172.52 633.199 174.12H629.911C629.479 173.24 628.879 172.584 628.111 172.152C627.343 171.72 626.455 171.504 625.447 171.504C624.343 171.504 623.359 171.752 622.495 172.248C621.631 172.744 620.951 173.456 620.455 174.384C619.975 175.312 619.735 176.392 619.735 177.624C619.735 178.856 619.975 179.936 620.455 180.864C620.951 181.792 621.631 182.512 622.495 183.024C623.359 183.52 624.343 183.768 625.447 183.768C626.455 183.768 627.343 183.552 628.111 183.12C628.879 182.688 629.479 182.032 629.911 181.152H633.199C632.575 182.752 631.567 183.984 630.175 184.848C628.799 185.712 627.223 186.144 625.447 186.144C623.879 186.144 622.447 185.784 621.151 185.064C619.855 184.328 618.823 183.312 618.055 182.016C617.303 180.72 616.927 179.256 616.927 177.624ZM642.138 186.216C640.89 186.216 639.762 185.936 638.754 185.376C637.746 184.8 636.954 184 636.378 182.976C635.802 181.936 635.514 180.736 635.514 179.376C635.514 178.032 635.81 176.84 636.402 175.8C636.994 174.76 637.802 173.96 638.826 173.4C639.85 172.84 640.994 172.56 642.258 172.56C643.522 172.56 644.666 172.84 645.69 173.4C646.714 173.96 647.522 174.76 648.114 175.8C648.706 176.84 649.002 178.032 649.002 179.376C649.002 180.72 648.698 181.912 648.09 182.952C647.482 183.992 646.65 184.8 645.594 185.376C644.554 185.936 643.402 186.216 642.138 186.216ZM642.138 183.84C642.842 183.84 643.498 183.672 644.106 183.336C644.73 183 645.234 182.496 645.618 181.824C646.002 181.152 646.194 180.336 646.194 179.376C646.194 178.416 646.01 177.608 645.642 176.952C645.274 176.28 644.786 175.776 644.178 175.44C643.57 175.104 642.914 174.936 642.21 174.936C641.506 174.936 640.85 175.104 640.242 175.44C639.65 175.776 639.178 176.28 638.826 176.952C638.474 177.608 638.298 178.416 638.298 179.376C638.298 180.8 638.658 181.904 639.378 182.688C640.114 183.456 641.034 183.84 642.138 183.84ZM654.442 168.24V186H651.706V168.24H654.442ZM660.77 168.24V186H658.034V168.24H660.77ZM676.483 179.064C676.483 179.56 676.451 180.008 676.387 180.408H666.283C666.363 181.464 666.755 182.312 667.459 182.952C668.163 183.592 669.027 183.912 670.051 183.912C671.523 183.912 672.563 183.296 673.171 182.064H676.122C675.723 183.28 674.995 184.28 673.939 185.064C672.899 185.832 671.603 186.216 670.051 186.216C668.787 186.216 667.651 185.936 666.643 185.376C665.651 184.8 664.867 184 664.291 182.976C663.731 181.936 663.451 180.736 663.451 179.376C663.451 178.016 663.723 176.824 664.267 175.8C664.827 174.76 665.603 173.96 666.595 173.4C667.603 172.84 668.755 172.56 670.051 172.56C671.299 172.56 672.411 172.832 673.387 173.376C674.363 173.92 675.123 174.688 675.667 175.68C676.211 176.656 676.483 177.784 676.483 179.064ZM673.627 178.2C673.611 177.192 673.251 176.384 672.547 175.776C671.843 175.168 670.971 174.864 669.931 174.864C668.987 174.864 668.179 175.168 667.507 175.776C666.835 176.368 666.435 177.176 666.307 178.2H673.627ZM678.263 179.376C678.263 178.016 678.535 176.824 679.079 175.8C679.639 174.76 680.407 173.96 681.383 173.4C682.359 172.84 683.479 172.56 684.743 172.56C686.343 172.56 687.663 172.944 688.703 173.712C689.759 174.464 690.471 175.544 690.839 176.952H687.887C687.647 176.296 687.263 175.784 686.735 175.416C686.207 175.048 685.543 174.864 684.743 174.864C683.623 174.864 682.727 175.264 682.055 176.064C681.399 176.848 681.071 177.952 681.071 179.376C681.071 180.8 681.399 181.912 682.055 182.712C682.727 183.512 683.623 183.912 684.743 183.912C686.327 183.912 687.375 183.216 687.887 181.824H690.839C690.455 183.168 689.735 184.24 688.679 185.04C687.623 185.824 686.311 186.216 684.743 186.216C683.479 186.216 682.359 185.936 681.383 185.376C680.407 184.8 679.639 184 679.079 182.976C678.535 181.936 678.263 180.736 678.263 179.376ZM696.758 175.008V182.328C696.758 182.824 696.87 183.184 697.094 183.408C697.334 183.616 697.734 183.72 698.294 183.72H699.974V186H697.814C696.582 186 695.638 185.712 694.982 185.136C694.326 184.56 693.998 183.624 693.998 182.328V175.008H692.438V172.776H693.998V169.488H696.758V172.776H699.974V175.008H696.758ZM708.231 186.216C706.983 186.216 705.855 185.936 704.847 185.376C703.839 184.8 703.047 184 702.471 182.976C701.895 181.936 701.607 180.736 701.607 179.376C701.607 178.032 701.903 176.84 702.495 175.8C703.087 174.76 703.895 173.96 704.919 173.4C705.943 172.84 707.087 172.56 708.351 172.56C709.615 172.56 710.759 172.84 711.783 173.4C712.807 173.96 713.615 174.76 714.207 175.8C714.799 176.84 715.095 178.032 715.095 179.376C715.095 180.72 714.791 181.912 714.183 182.952C713.575 183.992 712.743 184.8 711.687 185.376C710.647 185.936 709.495 186.216 708.231 186.216ZM708.231 183.84C708.935 183.84 709.591 183.672 710.199 183.336C710.823 183 711.327 182.496 711.711 181.824C712.095 181.152 712.287 180.336 712.287 179.376C712.287 178.416 712.103 177.608 711.735 176.952C711.367 176.28 710.879 175.776 710.271 175.44C709.663 175.104 709.007 174.936 708.303 174.936C707.599 174.936 706.943 175.104 706.335 175.44C705.743 175.776 705.271 176.28 704.919 176.952C704.567 177.608 704.391 178.416 704.391 179.376C704.391 180.8 704.751 181.904 705.471 182.688C706.207 183.456 707.127 183.84 708.231 183.84ZM720.536 174.696C720.936 174.024 721.464 173.504 722.12 173.136C722.792 172.752 723.584 172.56 724.496 172.56V175.392H723.8C722.728 175.392 721.912 175.664 721.352 176.208C720.808 176.752 720.536 177.696 720.536 179.04V186H717.8V172.776H720.536V174.696Z" fill="black"/>
<g filter="url(#filter1_d_903_41)">
<rect x="1041" y="102" width="300" height="116.129" rx="4" fill="#EDEEB3"/>
<rect x="1041.5" y="102.5" width="299" height="115.129" rx="3.5" stroke="black"/>
</g>
<path d="M1124.72 161.495C1124.72 159.863 1125.09 158.399 1125.84 157.103C1126.61 155.807 1127.64 154.799 1128.94 154.079C1130.25 153.343 1131.68 152.975 1133.24 152.975C1135.01 152.975 1136.59 153.415 1137.96 154.295C1139.36 155.159 1140.36 156.391 1140.99 157.991H1137.7C1137.27 157.111 1136.67 156.455 1135.9 156.023C1135.13 155.591 1134.24 155.375 1133.24 155.375C1132.13 155.375 1131.15 155.623 1130.28 156.119C1129.42 156.615 1128.74 157.327 1128.24 158.255C1127.76 159.183 1127.52 160.263 1127.52 161.495C1127.52 162.727 1127.76 163.807 1128.24 164.735C1128.74 165.663 1129.42 166.383 1130.28 166.895C1131.15 167.391 1132.13 167.639 1133.24 167.639C1134.24 167.639 1135.13 167.423 1135.9 166.991C1136.67 166.559 1137.27 165.903 1137.7 165.023H1140.99C1140.36 166.623 1139.36 167.855 1137.96 168.719C1136.59 169.583 1135.01 170.015 1133.24 170.015C1131.67 170.015 1130.24 169.655 1128.94 168.935C1127.64 168.199 1126.61 167.183 1125.84 165.887C1125.09 164.591 1124.72 163.127 1124.72 161.495ZM1146.93 152.111V169.871H1144.19V152.111H1146.93ZM1151.91 154.895C1151.41 154.895 1151 154.727 1150.66 154.391C1150.33 154.055 1150.16 153.639 1150.16 153.143C1150.16 152.647 1150.33 152.231 1150.66 151.895C1151 151.559 1151.41 151.391 1151.91 151.391C1152.39 151.391 1152.8 151.559 1153.13 151.895C1153.47 152.231 1153.64 152.647 1153.64 153.143C1153.64 153.639 1153.47 154.055 1153.13 154.391C1152.8 154.727 1152.39 154.895 1151.91 154.895ZM1153.25 156.647V169.871H1150.52V156.647H1153.25ZM1155.93 163.247C1155.93 161.887 1156.21 160.695 1156.75 159.671C1157.31 158.631 1158.08 157.831 1159.05 157.271C1160.03 156.711 1161.15 156.431 1162.41 156.431C1164.01 156.431 1165.33 156.815 1166.37 157.583C1167.43 158.335 1168.14 159.415 1168.51 160.823H1165.56C1165.32 160.167 1164.93 159.655 1164.41 159.287C1163.88 158.919 1163.21 158.735 1162.41 158.735C1161.29 158.735 1160.4 159.135 1159.73 159.935C1159.07 160.719 1158.74 161.823 1158.74 163.247C1158.74 164.671 1159.07 165.783 1159.73 166.583C1160.4 167.383 1161.29 167.783 1162.41 167.783C1164 167.783 1165.05 167.087 1165.56 165.695H1168.51C1168.13 167.039 1167.41 168.111 1166.35 168.911C1165.29 169.695 1163.98 170.087 1162.41 170.087C1161.15 170.087 1160.03 169.807 1159.05 169.247C1158.08 168.671 1157.31 167.871 1156.75 166.847C1156.21 165.807 1155.93 164.607 1155.93 163.247ZM1176.47 163.271L1182.57 169.871H1178.87L1173.97 164.183V169.871H1171.24V152.111H1173.97V162.431L1178.77 156.647H1182.57L1176.47 163.271ZM1197.85 153.191V169.871H1195.11V162.575H1187.26V169.871H1184.53V153.191H1187.26V160.343H1195.11V153.191H1197.85ZM1207.18 170.087C1205.94 170.087 1204.81 169.807 1203.8 169.247C1202.79 168.671 1202 167.871 1201.42 166.847C1200.85 165.807 1200.56 164.607 1200.56 163.247C1200.56 161.903 1200.86 160.711 1201.45 159.671C1202.04 158.631 1202.85 157.831 1203.87 157.271C1204.9 156.711 1206.04 156.431 1207.3 156.431C1208.57 156.431 1209.71 156.711 1210.74 157.271C1211.76 157.831 1212.57 158.631 1213.16 159.671C1213.75 160.711 1214.05 161.903 1214.05 163.247C1214.05 164.591 1213.74 165.783 1213.14 166.823C1212.53 167.863 1211.7 168.671 1210.64 169.247C1209.6 169.807 1208.45 170.087 1207.18 170.087ZM1207.18 167.711C1207.89 167.711 1208.54 167.543 1209.15 167.207C1209.78 166.871 1210.28 166.367 1210.66 165.695C1211.05 165.023 1211.24 164.207 1211.24 163.247C1211.24 162.287 1211.06 161.479 1210.69 160.823C1210.32 160.151 1209.83 159.647 1209.22 159.311C1208.62 158.975 1207.96 158.807 1207.26 158.807C1206.55 158.807 1205.9 158.975 1205.29 159.311C1204.7 159.647 1204.22 160.151 1203.87 160.823C1203.52 161.479 1203.34 162.287 1203.34 163.247C1203.34 164.671 1203.7 165.775 1204.42 166.559C1205.16 167.327 1206.08 167.711 1207.18 167.711ZM1228.73 156.647V169.871H1225.99V168.311C1225.56 168.855 1224.99 169.287 1224.29 169.607C1223.6 169.911 1222.87 170.063 1222.08 170.063C1221.04 170.063 1220.11 169.847 1219.27 169.415C1218.46 168.983 1217.81 168.343 1217.33 167.495C1216.87 166.647 1216.63 165.623 1216.63 164.423V156.647H1219.35V164.015C1219.35 165.199 1219.64 166.111 1220.23 166.751C1220.83 167.375 1221.63 167.687 1222.66 167.687C1223.68 167.687 1224.49 167.375 1225.08 166.751C1225.69 166.111 1225.99 165.199 1225.99 164.015V156.647H1228.73ZM1237.14 170.087C1236.1 170.087 1235.16 169.903 1234.33 169.535C1233.52 169.151 1232.87 168.639 1232.39 167.999C1231.91 167.343 1231.65 166.615 1231.62 165.815H1234.45C1234.5 166.375 1234.76 166.847 1235.24 167.231C1235.74 167.599 1236.36 167.783 1237.09 167.783C1237.86 167.783 1238.45 167.639 1238.87 167.351C1239.3 167.047 1239.52 166.663 1239.52 166.199C1239.52 165.703 1239.28 165.335 1238.8 165.095C1238.33 164.855 1237.59 164.591 1236.56 164.303C1235.57 164.031 1234.76 163.767 1234.14 163.511C1233.52 163.255 1232.97 162.863 1232.51 162.335C1232.06 161.807 1231.84 161.111 1231.84 160.247C1231.84 159.543 1232.04 158.903 1232.46 158.327C1232.88 157.735 1233.47 157.271 1234.24 156.935C1235.02 156.599 1235.92 156.431 1236.92 156.431C1238.43 156.431 1239.64 156.815 1240.55 157.583C1241.48 158.335 1241.97 159.367 1242.04 160.679H1239.3C1239.25 160.087 1239.01 159.615 1238.58 159.263C1238.15 158.911 1237.56 158.735 1236.83 158.735C1236.11 158.735 1235.56 158.871 1235.17 159.143C1234.79 159.415 1234.6 159.775 1234.6 160.223C1234.6 160.575 1234.72 160.871 1234.98 161.111C1235.24 161.351 1235.55 161.543 1235.92 161.687C1236.28 161.815 1236.83 161.983 1237.55 162.191C1238.51 162.447 1239.29 162.711 1239.9 162.983C1240.52 163.239 1241.06 163.623 1241.51 164.135C1241.96 164.647 1242.19 165.327 1242.2 166.175C1242.2 166.927 1242 167.599 1241.58 168.191C1241.16 168.783 1240.57 169.247 1239.8 169.583C1239.05 169.919 1238.16 170.087 1237.14 170.087ZM1257.28 162.935C1257.28 163.431 1257.25 163.879 1257.18 164.279H1247.08C1247.16 165.335 1247.55 166.183 1248.26 166.823C1248.96 167.463 1249.82 167.783 1250.85 167.783C1252.32 167.783 1253.36 167.167 1253.97 165.935H1256.92C1256.52 167.151 1255.79 168.151 1254.74 168.935C1253.7 169.703 1252.4 170.087 1250.85 170.087C1249.58 170.087 1248.45 169.807 1247.44 169.247C1246.45 168.671 1245.66 167.871 1245.09 166.847C1244.53 165.807 1244.25 164.607 1244.25 163.247C1244.25 161.887 1244.52 160.695 1245.06 159.671C1245.62 158.631 1246.4 157.831 1247.39 157.271C1248.4 156.711 1249.55 156.431 1250.85 156.431C1252.1 156.431 1253.21 156.703 1254.18 157.247C1255.16 157.791 1255.92 158.559 1256.46 159.551C1257.01 160.527 1257.28 161.655 1257.28 162.935ZM1254.42 162.071C1254.41 161.063 1254.05 160.255 1253.34 159.647C1252.64 159.039 1251.77 158.735 1250.73 158.735C1249.78 158.735 1248.98 159.039 1248.3 159.647C1247.63 160.239 1247.23 161.047 1247.1 162.071H1254.42Z" fill="black"/>
<g filter="url(#filter2_d_903_41)">
<rect x="1561" y="102" width="300" height="116.129" rx="4" fill="#B8EFB6"/>
<rect x="1561.5" y="102.5" width="299" height="115.129" rx="3.5" stroke="black"/>
</g>
<path d="M1670.58 161.495C1670.58 159.863 1670.96 158.399 1671.71 157.103C1672.48 155.807 1673.51 154.799 1674.8 154.079C1676.12 153.343 1677.55 152.975 1679.1 152.975C1680.88 152.975 1682.45 153.415 1683.83 154.295C1685.22 155.159 1686.23 156.391 1686.85 157.991H1683.56C1683.13 157.111 1682.53 156.455 1681.76 156.023C1681 155.591 1680.11 155.375 1679.1 155.375C1678 155.375 1677.01 155.623 1676.15 156.119C1675.28 156.615 1674.6 157.327 1674.11 158.255C1673.63 159.183 1673.39 160.263 1673.39 161.495C1673.39 162.727 1673.63 163.807 1674.11 164.735C1674.6 165.663 1675.28 166.383 1676.15 166.895C1677.01 167.391 1678 167.639 1679.1 167.639C1680.11 167.639 1681 167.423 1681.76 166.991C1682.53 166.559 1683.13 165.903 1683.56 165.023H1686.85C1686.23 166.623 1685.22 167.855 1683.83 168.719C1682.45 169.583 1680.88 170.015 1679.1 170.015C1677.53 170.015 1676.1 169.655 1674.8 168.935C1673.51 168.199 1672.48 167.183 1671.71 165.887C1670.96 164.591 1670.58 163.127 1670.58 161.495ZM1695.79 170.087C1694.54 170.087 1693.41 169.807 1692.41 169.247C1691.4 168.671 1690.61 167.871 1690.03 166.847C1689.45 165.807 1689.17 164.607 1689.17 163.247C1689.17 161.903 1689.46 160.711 1690.05 159.671C1690.65 158.631 1691.45 157.831 1692.48 157.271C1693.5 156.711 1694.65 156.431 1695.91 156.431C1697.17 156.431 1698.32 156.711 1699.34 157.271C1700.37 157.831 1701.17 158.631 1701.77 159.671C1702.36 160.711 1702.65 161.903 1702.65 163.247C1702.65 164.591 1702.35 165.783 1701.74 166.823C1701.13 167.863 1700.3 168.671 1699.25 169.247C1698.21 169.807 1697.05 170.087 1695.79 170.087ZM1695.79 167.711C1696.49 167.711 1697.15 167.543 1697.76 167.207C1698.38 166.871 1698.89 166.367 1699.27 165.695C1699.65 165.023 1699.85 164.207 1699.85 163.247C1699.85 162.287 1699.66 161.479 1699.29 160.823C1698.93 160.151 1698.44 159.647 1697.83 159.311C1697.22 158.975 1696.57 158.807 1695.86 158.807C1695.16 158.807 1694.5 158.975 1693.89 159.311C1693.3 159.647 1692.83 160.151 1692.48 160.823C1692.13 161.479 1691.95 162.287 1691.95 163.247C1691.95 164.671 1692.31 165.775 1693.03 166.559C1693.77 167.327 1694.69 167.711 1695.79 167.711ZM1708.09 158.567C1708.49 157.895 1709.02 157.375 1709.68 157.007C1710.35 156.623 1711.14 156.431 1712.05 156.431V159.263H1711.36C1710.29 159.263 1709.47 159.535 1708.91 160.079C1708.37 160.623 1708.09 161.567 1708.09 162.911V169.871H1705.36V156.647H1708.09V158.567ZM1720.31 170.087C1719.06 170.087 1717.93 169.807 1716.92 169.247C1715.91 168.671 1715.12 167.871 1714.55 166.847C1713.97 165.807 1713.68 164.607 1713.68 163.247C1713.68 161.903 1713.98 160.711 1714.57 159.671C1715.16 158.631 1715.97 157.831 1716.99 157.271C1718.02 156.711 1719.16 156.431 1720.43 156.431C1721.69 156.431 1722.83 156.711 1723.86 157.271C1724.88 157.831 1725.69 158.631 1726.28 159.671C1726.87 160.711 1727.17 161.903 1727.17 163.247C1727.17 164.591 1726.87 165.783 1726.26 166.823C1725.65 167.863 1724.82 168.671 1723.76 169.247C1722.72 169.807 1721.57 170.087 1720.31 170.087ZM1720.31 167.711C1721.01 167.711 1721.67 167.543 1722.27 167.207C1722.9 166.871 1723.4 166.367 1723.79 165.695C1724.17 165.023 1724.36 164.207 1724.36 163.247C1724.36 162.287 1724.18 161.479 1723.81 160.823C1723.44 160.151 1722.95 159.647 1722.35 159.311C1721.74 158.975 1721.08 158.807 1720.38 158.807C1719.67 158.807 1719.02 158.975 1718.41 159.311C1717.82 159.647 1717.35 160.151 1716.99 160.823C1716.64 161.479 1716.47 162.287 1716.47 163.247C1716.47 164.671 1716.83 165.775 1717.55 166.559C1718.28 167.327 1719.2 167.711 1720.31 167.711ZM1735.61 170.087C1734.36 170.087 1733.23 169.807 1732.23 169.247C1731.22 168.671 1730.43 167.871 1729.85 166.847C1729.27 165.807 1728.99 164.607 1728.99 163.247C1728.99 161.903 1729.28 160.711 1729.87 159.671C1730.47 158.631 1731.27 157.831 1732.3 157.271C1733.32 156.711 1734.47 156.431 1735.73 156.431C1736.99 156.431 1738.14 156.711 1739.16 157.271C1740.19 157.831 1740.99 158.631 1741.59 159.671C1742.18 160.711 1742.47 161.903 1742.47 163.247C1742.47 164.591 1742.17 165.783 1741.56 166.823C1740.95 167.863 1740.12 168.671 1739.07 169.247C1738.03 169.807 1736.87 170.087 1735.61 170.087ZM1735.61 167.711C1736.31 167.711 1736.97 167.543 1737.58 167.207C1738.2 166.871 1738.71 166.367 1739.09 165.695C1739.47 165.023 1739.67 164.207 1739.67 163.247C1739.67 162.287 1739.48 161.479 1739.11 160.823C1738.75 160.151 1738.26 159.647 1737.65 159.311C1737.04 158.975 1736.39 158.807 1735.68 158.807C1734.98 158.807 1734.32 158.975 1733.71 159.311C1733.12 159.647 1732.65 160.151 1732.3 160.823C1731.95 161.479 1731.77 162.287 1731.77 163.247C1731.77 164.671 1732.13 165.775 1732.85 166.559C1733.59 167.327 1734.51 167.711 1735.61 167.711ZM1748.37 158.879V166.199C1748.37 166.695 1748.48 167.055 1748.71 167.279C1748.95 167.487 1749.35 167.591 1749.91 167.591H1751.59V169.871H1749.43C1748.19 169.871 1747.25 169.583 1746.59 169.007C1745.94 168.431 1745.61 167.495 1745.61 166.199V158.879H1744.05V156.647H1745.61V153.359H1748.37V156.647H1751.59V158.879H1748.37Z" fill="black"/>
<g filter="url(#filter3_d_903_41)">
<rect x="4" y="100" width="300" height="60" rx="4" fill="#F9DAF6"/>
<rect x="4.5" y="100.5" width="299" height="59" rx="3.5" stroke="black"/>
</g>
<path d="M107.319 138.168C106.199 138.168 105.191 137.976 104.295 137.592C103.399 137.192 102.695 136.632 102.183 135.912C101.671 135.192 101.415 134.352 101.415 133.392H104.343C104.407 134.112 104.687 134.704 105.183 135.168C105.695 135.632 106.407 135.864 107.319 135.864C108.263 135.864 108.999 135.64 109.527 135.192C110.055 134.728 110.319 134.136 110.319 133.416C110.319 132.856 110.151 132.4 109.815 132.048C109.495 131.696 109.087 131.424 108.591 131.232C108.111 131.04 107.439 130.832 106.575 130.608C105.487 130.32 104.599 130.032 103.911 129.744C103.239 129.44 102.663 128.976 102.183 128.352C101.703 127.728 101.463 126.896 101.463 125.856C101.463 124.896 101.703 124.056 102.183 123.336C102.663 122.616 103.335 122.064 104.199 121.68C105.063 121.296 106.063 121.104 107.199 121.104C108.815 121.104 110.135 121.512 111.159 122.328C112.199 123.128 112.775 124.232 112.887 125.64H109.863C109.815 125.032 109.527 124.512 108.999 124.08C108.471 123.648 107.775 123.432 106.911 123.432C106.127 123.432 105.487 123.632 104.991 124.032C104.495 124.432 104.247 125.008 104.247 125.76C104.247 126.272 104.399 126.696 104.703 127.032C105.023 127.352 105.423 127.608 105.903 127.8C106.383 127.992 107.039 128.2 107.871 128.424C108.975 128.728 109.871 129.032 110.559 129.336C111.263 129.64 111.855 130.112 112.335 130.752C112.831 131.376 113.079 132.216 113.079 133.272C113.079 134.12 112.847 134.92 112.383 135.672C111.935 136.424 111.271 137.032 110.391 137.496C109.527 137.944 108.503 138.168 107.319 138.168ZM128.428 131.064C128.428 131.56 128.396 132.008 128.332 132.408H118.228C118.308 133.464 118.7 134.312 119.404 134.952C120.108 135.592 120.972 135.912 121.996 135.912C123.468 135.912 124.508 135.296 125.116 134.064H128.068C127.668 135.28 126.94 136.28 125.884 137.064C124.844 137.832 123.548 138.216 121.996 138.216C120.732 138.216 119.596 137.936 118.588 137.376C117.596 136.8 116.812 136 116.236 134.976C115.676 133.936 115.396 132.736 115.396 131.376C115.396 130.016 115.668 128.824 116.212 127.8C116.772 126.76 117.548 125.96 118.54 125.4C119.548 124.84 120.7 124.56 121.996 124.56C123.244 124.56 124.356 124.832 125.332 125.376C126.308 125.92 127.068 126.688 127.612 127.68C128.156 128.656 128.428 129.784 128.428 131.064ZM125.572 130.2C125.556 129.192 125.196 128.384 124.492 127.776C123.788 127.168 122.916 126.864 121.876 126.864C120.932 126.864 120.124 127.168 119.452 127.776C118.78 128.368 118.38 129.176 118.252 130.2H125.572ZM133.856 126.696C134.256 126.024 134.784 125.504 135.44 125.136C136.112 124.752 136.904 124.56 137.816 124.56V127.392H137.12C136.048 127.392 135.232 127.664 134.672 128.208C134.128 128.752 133.856 129.696 133.856 131.04V138H131.12V124.776H133.856V126.696ZM145.443 135.552L149.187 124.776H152.091L147.051 138H143.787L138.771 124.776H141.699L145.443 135.552ZM155.551 123.024C155.055 123.024 154.639 122.856 154.303 122.52C153.967 122.184 153.799 121.768 153.799 121.272C153.799 120.776 153.967 120.36 154.303 120.024C154.639 119.688 155.055 119.52 155.551 119.52C156.031 119.52 156.439 119.688 156.775 120.024C157.111 120.36 157.279 120.776 157.279 121.272C157.279 121.768 157.111 122.184 156.775 122.52C156.439 122.856 156.031 123.024 155.551 123.024ZM156.895 124.776V138H154.159V124.776H156.895ZM159.576 131.376C159.576 130.016 159.848 128.824 160.392 127.8C160.952 126.76 161.72 125.96 162.696 125.4C163.672 124.84 164.792 124.56 166.056 124.56C167.656 124.56 168.976 124.944 170.016 125.712C171.072 126.464 171.784 127.544 172.152 128.952H169.2C168.96 128.296 168.576 127.784 168.048 127.416C167.52 127.048 166.856 126.864 166.056 126.864C164.936 126.864 164.04 127.264 163.368 128.064C162.712 128.848 162.384 129.952 162.384 131.376C162.384 132.8 162.712 133.912 163.368 134.712C164.04 135.512 164.936 135.912 166.056 135.912C167.64 135.912 168.688 135.216 169.2 133.824H172.152C171.768 135.168 171.048 136.24 169.992 137.04C168.936 137.824 167.624 138.216 166.056 138.216C164.792 138.216 163.672 137.936 162.696 137.376C161.72 136.8 160.952 136 160.392 134.976C159.848 133.936 159.576 132.736 159.576 131.376ZM186.998 131.064C186.998 131.56 186.966 132.008 186.902 132.408H176.798C176.878 133.464 177.27 134.312 177.974 134.952C178.678 135.592 179.542 135.912 180.566 135.912C182.038 135.912 183.078 135.296 183.686 134.064H186.638C186.238 135.28 185.51 136.28 184.454 137.064C183.414 137.832 182.118 138.216 180.566 138.216C179.302 138.216 178.166 137.936 177.158 137.376C176.166 136.8 175.382 136 174.806 134.976C174.246 133.936 173.966 132.736 173.966 131.376C173.966 130.016 174.238 128.824 174.782 127.8C175.342 126.76 176.118 125.96 177.11 125.4C178.118 124.84 179.27 124.56 180.566 124.56C181.814 124.56 182.926 124.832 183.902 125.376C184.878 125.92 185.638 126.688 186.182 127.68C186.726 128.656 186.998 129.784 186.998 131.064ZM184.142 130.2C184.126 129.192 183.766 128.384 183.062 127.776C182.358 127.168 181.486 126.864 180.446 126.864C179.502 126.864 178.694 127.168 178.022 127.776C177.35 128.368 176.95 129.176 176.822 130.2H184.142ZM197.077 134.28C198.613 132.952 199.821 131.864 200.701 131.016C201.597 130.152 202.341 129.256 202.933 128.328C203.525 127.4 203.821 126.472 203.821 125.544C203.821 124.584 203.589 123.832 203.125 123.288C202.677 122.744 201.965 122.472 200.989 122.472C200.045 122.472 199.309 122.776 198.781 123.384C198.269 123.976 197.997 124.776 197.965 125.784H195.325C195.373 123.96 195.917 122.568 196.957 121.608C198.013 120.632 199.349 120.144 200.965 120.144C202.709 120.144 204.069 120.624 205.045 121.584C206.037 122.544 206.533 123.824 206.533 125.424C206.533 126.576 206.237 127.688 205.645 128.76C205.069 129.816 204.373 130.768 203.557 131.616C202.757 132.448 201.733 133.416 200.485 134.52L199.405 135.48H207.013V137.76H195.349V135.768L197.077 134.28Z" fill="black"/>
<g filter="url(#filter4_d_903_41)">
<rect x="4" width="300" height="60" rx="4" fill="#F1BFB0"/>
<rect x="4.5" y="0.5" width="299" height="59" rx="3.5" stroke="black"/>
</g>
<path d="M110.05 38.168C108.93 38.168 107.922 37.976 107.026 37.592C106.13 37.192 105.426 36.632 104.914 35.912C104.402 35.192 104.146 34.352 104.146 33.392H107.074C107.138 34.112 107.418 34.704 107.914 35.168C108.426 35.632 109.138 35.864 110.05 35.864C110.994 35.864 111.73 35.64 112.258 35.192C112.786 34.728 113.05 34.136 113.05 33.416C113.05 32.856 112.882 32.4 112.546 32.048C112.226 31.696 111.818 31.424 111.322 31.232C110.842 31.04 110.17 30.832 109.306 30.608C108.218 30.32 107.33 30.032 106.642 29.744C105.97 29.44 105.394 28.976 104.914 28.352C104.434 27.728 104.194 26.896 104.194 25.856C104.194 24.896 104.434 24.056 104.914 23.336C105.394 22.616 106.066 22.064 106.93 21.68C107.794 21.296 108.794 21.104 109.93 21.104C111.546 21.104 112.866 21.512 113.89 22.328C114.93 23.128 115.506 24.232 115.618 25.64H112.594C112.546 25.032 112.258 24.512 111.73 24.08C111.202 23.648 110.506 23.432 109.642 23.432C108.858 23.432 108.218 23.632 107.722 24.032C107.226 24.432 106.978 25.008 106.978 25.76C106.978 26.272 107.13 26.696 107.434 27.032C107.754 27.352 108.154 27.608 108.634 27.8C109.114 27.992 109.77 28.2 110.602 28.424C111.706 28.728 112.602 29.032 113.29 29.336C113.994 29.64 114.586 30.112 115.066 30.752C115.562 31.376 115.81 32.216 115.81 33.272C115.81 34.12 115.578 34.92 115.114 35.672C114.666 36.424 114.002 37.032 113.122 37.496C112.258 37.944 111.234 38.168 110.05 38.168ZM131.158 31.064C131.158 31.56 131.126 32.008 131.062 32.408H120.958C121.038 33.464 121.43 34.312 122.134 34.952C122.838 35.592 123.702 35.912 124.726 35.912C126.198 35.912 127.238 35.296 127.846 34.064H130.798C130.398 35.28 129.67 36.28 128.614 37.064C127.574 37.832 126.278 38.216 124.726 38.216C123.462 38.216 122.326 37.936 121.318 37.376C120.326 36.8 119.542 36 118.966 34.976C118.406 33.936 118.126 32.736 118.126 31.376C118.126 30.016 118.398 28.824 118.942 27.8C119.502 26.76 120.278 25.96 121.27 25.4C122.278 24.84 123.43 24.56 124.726 24.56C125.974 24.56 127.086 24.832 128.062 25.376C129.038 25.92 129.798 26.688 130.342 27.68C130.886 28.656 131.158 29.784 131.158 31.064ZM128.302 30.2C128.286 29.192 127.926 28.384 127.222 27.776C126.518 27.168 125.646 26.864 124.606 26.864C123.662 26.864 122.854 27.168 122.182 27.776C121.51 28.368 121.11 29.176 120.982 30.2H128.302ZM136.587 26.696C136.987 26.024 137.515 25.504 138.171 25.136C138.843 24.752 139.635 24.56 140.547 24.56V27.392H139.851C138.779 27.392 137.963 27.664 137.403 28.208C136.859 28.752 136.587 29.696 136.587 31.04V38H133.851V24.776H136.587V26.696ZM148.174 35.552L151.918 24.776H154.822L149.782 38H146.518L141.502 24.776H144.43L148.174 35.552ZM158.282 23.024C157.786 23.024 157.37 22.856 157.034 22.52C156.698 22.184 156.53 21.768 156.53 21.272C156.53 20.776 156.698 20.36 157.034 20.024C157.37 19.688 157.786 19.52 158.282 19.52C158.762 19.52 159.17 19.688 159.506 20.024C159.842 20.36 160.01 20.776 160.01 21.272C160.01 21.768 159.842 22.184 159.506 22.52C159.17 22.856 158.762 23.024 158.282 23.024ZM159.626 24.776V38H156.89V24.776H159.626ZM162.306 31.376C162.306 30.016 162.578 28.824 163.122 27.8C163.682 26.76 164.45 25.96 165.426 25.4C166.402 24.84 167.522 24.56 168.786 24.56C170.386 24.56 171.706 24.944 172.746 25.712C173.802 26.464 174.514 27.544 174.882 28.952H171.93C171.69 28.296 171.306 27.784 170.778 27.416C170.25 27.048 169.586 26.864 168.786 26.864C167.666 26.864 166.77 27.264 166.098 28.064C165.442 28.848 165.114 29.952 165.114 31.376C165.114 32.8 165.442 33.912 166.098 34.712C166.77 35.512 167.666 35.912 168.786 35.912C170.37 35.912 171.418 35.216 171.93 33.824H174.882C174.498 35.168 173.778 36.24 172.722 37.04C171.666 37.824 170.354 38.216 168.786 38.216C167.522 38.216 166.402 37.936 165.426 37.376C164.45 36.8 163.682 36 163.122 34.976C162.578 33.936 162.306 32.736 162.306 31.376ZM189.729 31.064C189.729 31.56 189.697 32.008 189.633 32.408H179.529C179.609 33.464 180.001 34.312 180.705 34.952C181.409 35.592 182.273 35.912 183.297 35.912C184.769 35.912 185.809 35.296 186.417 34.064H189.369C188.969 35.28 188.241 36.28 187.185 37.064C186.145 37.832 184.849 38.216 183.297 38.216C182.033 38.216 180.897 37.936 179.889 37.376C178.897 36.8 178.113 36 177.537 34.976C176.977 33.936 176.697 32.736 176.697 31.376C176.697 30.016 176.969 28.824 177.513 27.8C178.073 26.76 178.849 25.96 179.841 25.4C180.849 24.84 182.001 24.56 183.297 24.56C184.545 24.56 185.657 24.832 186.633 25.376C187.609 25.92 188.369 26.688 188.913 27.68C189.457 28.656 189.729 29.784 189.729 31.064ZM186.873 30.2C186.857 29.192 186.497 28.384 185.793 27.776C185.089 27.168 184.217 26.864 183.177 26.864C182.233 26.864 181.425 27.168 180.753 27.776C180.081 28.368 179.681 29.176 179.553 30.2H186.873ZM197.935 23V20.504H202.927V38H200.167V23H197.935Z" fill="black"/>
<g filter="url(#filter5_d_903_41)">
<rect x="4" y="201" width="300" height="120" rx="4" fill="#EDEEB3"/>
<rect x="4.5" y="201.5" width="299" height="119" rx="3.5" stroke="black"/>
</g>
<path d="M34.7122 244.376C34.7122 243.016 34.9842 241.824 35.5282 240.8C36.0882 239.76 36.8562 238.96 37.8322 238.4C38.8082 237.84 39.9282 237.56 41.1922 237.56C42.7922 237.56 44.1122 237.944 45.1522 238.712C46.2082 239.464 46.9202 240.544 47.2882 241.952H44.3362C44.0962 241.296 43.7122 240.784 43.1842 240.416C42.6562 240.048 41.9922 239.864 41.1922 239.864C40.0722 239.864 39.1762 240.264 38.5042 241.064C37.8482 241.848 37.5202 242.952 37.5202 244.376C37.5202 245.8 37.8482 246.912 38.5042 247.712C39.1762 248.512 40.0722 248.912 41.1922 248.912C42.7762 248.912 43.8242 248.216 44.3362 246.824H47.2882C46.9042 248.168 46.1842 249.24 45.1282 250.04C44.0722 250.824 42.7602 251.216 41.1922 251.216C39.9282 251.216 38.8082 250.936 37.8322 250.376C36.8562 249.8 36.0882 249 35.5282 247.976C34.9842 246.936 34.7122 245.736 34.7122 244.376ZM55.7508 251.216C54.5028 251.216 53.3748 250.936 52.3668 250.376C51.3588 249.8 50.5668 249 49.9908 247.976C49.4148 246.936 49.1268 245.736 49.1268 244.376C49.1268 243.032 49.4228 241.84 50.0148 240.8C50.6068 239.76 51.4148 238.96 52.4388 238.4C53.4628 237.84 54.6068 237.56 55.8708 237.56C57.1348 237.56 58.2788 237.84 59.3028 238.4C60.3268 238.96 61.1348 239.76 61.7268 240.8C62.3188 241.84 62.6148 243.032 62.6148 244.376C62.6148 245.72 62.3108 246.912 61.7028 247.952C61.0948 248.992 60.2628 249.8 59.2068 250.376C58.1668 250.936 57.0148 251.216 55.7508 251.216ZM55.7508 248.84C56.4548 248.84 57.1108 248.672 57.7188 248.336C58.3428 248 58.8468 247.496 59.2308 246.824C59.6148 246.152 59.8068 245.336 59.8068 244.376C59.8068 243.416 59.6228 242.608 59.2548 241.952C58.8868 241.28 58.3988 240.776 57.7908 240.44C57.1828 240.104 56.5268 239.936 55.8228 239.936C55.1188 239.936 54.4628 240.104 53.8548 240.44C53.2628 240.776 52.7908 241.28 52.4388 241.952C52.0868 242.608 51.9108 243.416 51.9108 244.376C51.9108 245.8 52.2708 246.904 52.9908 247.688C53.7268 248.456 54.6468 248.84 55.7508 248.84ZM68.0555 239.696C68.4555 239.024 68.9835 238.504 69.6395 238.136C70.3115 237.752 71.1035 237.56 72.0155 237.56V240.392H71.3195C70.2475 240.392 69.4315 240.664 68.8715 241.208C68.3275 241.752 68.0555 242.696 68.0555 244.04V251H65.3195V237.776H68.0555V239.696ZM80.2665 251.216C79.0185 251.216 77.8905 250.936 76.8825 250.376C75.8745 249.8 75.0825 249 74.5065 247.976C73.9305 246.936 73.6425 245.736 73.6425 244.376C73.6425 243.032 73.9385 241.84 74.5305 240.8C75.1225 239.76 75.9305 238.96 76.9545 238.4C77.9785 237.84 79.1225 237.56 80.3865 237.56C81.6505 237.56 82.7945 237.84 83.8185 238.4C84.8425 238.96 85.6505 239.76 86.2425 240.8C86.8345 241.84 87.1305 243.032 87.1305 244.376C87.1305 245.72 86.8265 246.912 86.2185 247.952C85.6105 248.992 84.7785 249.8 83.7225 250.376C82.6825 250.936 81.5305 251.216 80.2665 251.216ZM80.2665 248.84C80.9705 248.84 81.6265 248.672 82.2345 248.336C82.8585 248 83.3625 247.496 83.7465 246.824C84.1305 246.152 84.3225 245.336 84.3225 244.376C84.3225 243.416 84.1385 242.608 83.7705 241.952C83.4025 241.28 82.9145 240.776 82.3065 240.44C81.6985 240.104 81.0425 239.936 80.3385 239.936C79.6345 239.936 78.9785 240.104 78.3705 240.44C77.7785 240.776 77.3065 241.28 76.9545 241.952C76.6025 242.608 76.4265 243.416 76.4265 244.376C76.4265 245.8 76.7865 246.904 77.5065 247.688C78.2425 248.456 79.1625 248.84 80.2665 248.84ZM95.5712 251.216C94.3232 251.216 93.1952 250.936 92.1872 250.376C91.1792 249.8 90.3872 249 89.8112 247.976C89.2352 246.936 88.9472 245.736 88.9472 244.376C88.9472 243.032 89.2432 241.84 89.8352 240.8C90.4272 239.76 91.2352 238.96 92.2592 238.4C93.2832 237.84 94.4272 237.56 95.6912 237.56C96.9552 237.56 98.0992 237.84 99.1232 238.4C100.147 238.96 100.955 239.76 101.547 240.8C102.139 241.84 102.435 243.032 102.435 244.376C102.435 245.72 102.131 246.912 101.523 247.952C100.915 248.992 100.083 249.8 99.0272 250.376C97.9872 250.936 96.8352 251.216 95.5712 251.216ZM95.5712 248.84C96.2752 248.84 96.9312 248.672 97.5392 248.336C98.1632 248 98.6672 247.496 99.0512 246.824C99.4352 246.152 99.6272 245.336 99.6272 244.376C99.6272 243.416 99.4432 242.608 99.0752 241.952C98.7072 241.28 98.2192 240.776 97.6112 240.44C97.0032 240.104 96.3472 239.936 95.6432 239.936C94.9392 239.936 94.2832 240.104 93.6752 240.44C93.0832 240.776 92.6112 241.28 92.2592 241.952C91.9072 242.608 91.7312 243.416 91.7312 244.376C91.7312 245.8 92.0912 246.904 92.8112 247.688C93.5472 248.456 94.4672 248.84 95.5712 248.84ZM108.332 240.008V247.328C108.332 247.824 108.444 248.184 108.668 248.408C108.908 248.616 109.308 248.72 109.868 248.72H111.548V251H109.388C108.156 251 107.212 250.712 106.556 250.136C105.9 249.56 105.572 248.624 105.572 247.328V240.008H104.012V237.776H105.572V234.488H108.332V237.776H111.548V240.008H108.332ZM124.222 241.16V243.464H114.358V241.16H124.222ZM134.781 237.56C135.821 237.56 136.749 237.776 137.565 238.208C138.397 238.64 139.045 239.28 139.509 240.128C139.973 240.976 140.205 242 140.205 243.2V251H137.493V243.608C137.493 242.424 137.197 241.52 136.605 240.896C136.013 240.256 135.205 239.936 134.181 239.936C133.157 239.936 132.341 240.256 131.733 240.896C131.141 241.52 130.845 242.424 130.845 243.608V251H128.109V237.776H130.845V239.288C131.293 238.744 131.861 238.32 132.549 238.016C133.253 237.712 133.997 237.56 134.781 237.56ZM149.431 251.216C148.183 251.216 147.055 250.936 146.047 250.376C145.039 249.8 144.247 249 143.671 247.976C143.095 246.936 142.807 245.736 142.807 244.376C142.807 243.032 143.103 241.84 143.695 240.8C144.287 239.76 145.095 238.96 146.119 238.4C147.143 237.84 148.287 237.56 149.551 237.56C150.815 237.56 151.959 237.84 152.983 238.4C154.007 238.96 154.815 239.76 155.407 240.8C155.999 241.84 156.295 243.032 156.295 244.376C156.295 245.72 155.991 246.912 155.383 247.952C154.775 248.992 153.943 249.8 152.887 250.376C151.847 250.936 150.695 251.216 149.431 251.216ZM149.431 248.84C150.135 248.84 150.791 248.672 151.399 248.336C152.023 248 152.527 247.496 152.911 246.824C153.295 246.152 153.487 245.336 153.487 244.376C153.487 243.416 153.303 242.608 152.935 241.952C152.567 241.28 152.079 240.776 151.471 240.44C150.863 240.104 150.207 239.936 149.503 239.936C148.799 239.936 148.143 240.104 147.535 240.44C146.943 240.776 146.471 241.28 146.119 241.952C145.767 242.608 145.591 243.416 145.591 244.376C145.591 245.8 145.951 246.904 146.671 247.688C147.407 248.456 148.327 248.84 149.431 248.84ZM158.087 244.328C158.087 243 158.359 241.824 158.903 240.8C159.463 239.776 160.215 238.984 161.159 238.424C162.119 237.848 163.183 237.56 164.351 237.56C165.215 237.56 166.063 237.752 166.895 238.136C167.743 238.504 168.415 239 168.911 239.624V233.24H171.671V251H168.911V249.008C168.463 249.648 167.839 250.176 167.039 250.592C166.255 251.008 165.351 251.216 164.327 251.216C163.175 251.216 162.119 250.928 161.159 250.352C160.215 249.76 159.463 248.944 158.903 247.904C158.359 246.848 158.087 245.656 158.087 244.328ZM168.911 244.376C168.911 243.464 168.719 242.672 168.335 242C167.967 241.328 167.479 240.816 166.871 240.464C166.263 240.112 165.607 239.936 164.903 239.936C164.199 239.936 163.543 240.112 162.935 240.464C162.327 240.8 161.831 241.304 161.447 241.976C161.079 242.632 160.895 243.416 160.895 244.328C160.895 245.24 161.079 246.04 161.447 246.728C161.831 247.416 162.327 247.944 162.935 248.312C163.559 248.664 164.215 248.84 164.903 248.84C165.607 248.84 166.263 248.664 166.871 248.312C167.479 247.96 167.967 247.448 168.335 246.776C168.719 246.088 168.911 245.288 168.911 244.376ZM187.385 244.064C187.385 244.56 187.353 245.008 187.289 245.408H177.185C177.265 246.464 177.657 247.312 178.361 247.952C179.065 248.592 179.929 248.912 180.953 248.912C182.425 248.912 183.465 248.296 184.073 247.064H187.025C186.625 248.28 185.897 249.28 184.841 250.064C183.801 250.832 182.505 251.216 180.953 251.216C179.689 251.216 178.553 250.936 177.545 250.376C176.553 249.8 175.769 249 175.193 247.976C174.633 246.936 174.353 245.736 174.353 244.376C174.353 243.016 174.625 241.824 175.169 240.8C175.729 239.76 176.505 238.96 177.497 238.4C178.505 237.84 179.657 237.56 180.953 237.56C182.201 237.56 183.313 237.832 184.289 238.376C185.265 238.92 186.025 239.688 186.569 240.68C187.113 241.656 187.385 242.784 187.385 244.064ZM184.529 243.2C184.513 242.192 184.153 241.384 183.449 240.776C182.745 240.168 181.873 239.864 180.833 239.864C179.889 239.864 179.081 240.168 178.409 240.776C177.737 241.368 177.337 242.176 177.209 243.2H184.529ZM200.229 241.16V243.464H190.365V241.16H200.229ZM203.204 244.328C203.204 243 203.476 241.824 204.02 240.8C204.58 239.776 205.332 238.984 206.276 238.424C207.236 237.848 208.292 237.56 209.444 237.56C210.484 237.56 211.388 237.768 212.156 238.184C212.94 238.584 213.564 239.088 214.028 239.696V237.776H216.788V251H214.028V249.032C213.564 249.656 212.932 250.176 212.132 250.592C211.332 251.008 210.42 251.216 209.396 251.216C208.26 251.216 207.22 250.928 206.276 250.352C205.332 249.76 204.58 248.944 204.02 247.904C203.476 246.848 203.204 245.656 203.204 244.328ZM214.028 244.376C214.028 243.464 213.836 242.672 213.452 242C213.084 241.328 212.596 240.816 211.988 240.464C211.38 240.112 210.724 239.936 210.02 239.936C209.316 239.936 208.66 240.112 208.052 240.464C207.444 240.8 206.948 241.304 206.564 241.976C206.196 242.632 206.012 243.416 206.012 244.328C206.012 245.24 206.196 246.04 206.564 246.728C206.948 247.416 207.444 247.944 208.052 248.312C208.676 248.664 209.332 248.84 210.02 248.84C210.724 248.84 211.38 248.664 211.988 248.312C212.596 247.96 213.084 247.448 213.452 246.776C213.836 246.088 214.028 245.288 214.028 244.376ZM225.71 237.56C226.734 237.56 227.638 237.768 228.422 238.184C229.222 238.584 229.846 239.088 230.294 239.696V237.776H233.054V251.216C233.054 252.432 232.798 253.512 232.286 254.456C231.774 255.416 231.03 256.168 230.054 256.712C229.094 257.256 227.942 257.528 226.598 257.528C224.806 257.528 223.318 257.104 222.134 256.256C220.95 255.424 220.278 254.288 220.118 252.848H222.83C223.038 253.536 223.478 254.088 224.15 254.504C224.838 254.936 225.654 255.152 226.598 255.152C227.702 255.152 228.59 254.816 229.262 254.144C229.95 253.472 230.294 252.496 230.294 251.216V249.008C229.83 249.632 229.198 250.16 228.398 250.592C227.614 251.008 226.718 251.216 225.71 251.216C224.558 251.216 223.502 250.928 222.542 250.352C221.598 249.76 220.846 248.944 220.286 247.904C219.742 246.848 219.47 245.656 219.47 244.328C219.47 243 219.742 241.824 220.286 240.8C220.846 239.776 221.598 238.984 222.542 238.424C223.502 237.848 224.558 237.56 225.71 237.56ZM230.294 244.376C230.294 243.464 230.102 242.672 229.718 242C229.35 241.328 228.862 240.816 228.254 240.464C227.646 240.112 226.99 239.936 226.286 239.936C225.582 239.936 224.926 240.112 224.318 240.464C223.71 240.8 223.214 241.304 222.83 241.976C222.462 242.632 222.278 243.416 222.278 244.328C222.278 245.24 222.462 246.04 222.83 246.728C223.214 247.416 223.71 247.944 224.318 248.312C224.942 248.664 225.598 248.84 226.286 248.84C226.99 248.84 227.646 248.664 228.254 248.312C228.862 247.96 229.35 247.448 229.718 246.776C230.102 246.088 230.294 245.288 230.294 244.376ZM248.768 244.064C248.768 244.56 248.736 245.008 248.672 245.408H238.568C238.648 246.464 239.04 247.312 239.744 247.952C240.448 248.592 241.312 248.912 242.336 248.912C243.808 248.912 244.848 248.296 245.456 247.064H248.408C248.008 248.28 247.28 249.28 246.224 250.064C245.184 250.832 243.888 251.216 242.336 251.216C241.072 251.216 239.936 250.936 238.928 250.376C237.936 249.8 237.152 249 236.576 247.976C236.016 246.936 235.736 245.736 235.736 244.376C235.736 243.016 236.008 241.824 236.552 240.8C237.112 239.76 237.888 238.96 238.88 238.4C239.888 237.84 241.04 237.56 242.336 237.56C243.584 237.56 244.696 237.832 245.672 238.376C246.648 238.92 247.408 239.688 247.952 240.68C248.496 241.656 248.768 242.784 248.768 244.064ZM245.912 243.2C245.896 242.192 245.536 241.384 244.832 240.776C244.128 240.168 243.256 239.864 242.216 239.864C241.272 239.864 240.464 240.168 239.792 240.776C239.12 241.368 238.72 242.176 238.592 243.2H245.912ZM258.132 237.56C259.172 237.56 260.1 237.776 260.916 238.208C261.748 238.64 262.396 239.28 262.86 240.128C263.324 240.976 263.556 242 263.556 243.2V251H260.844V243.608C260.844 242.424 260.548 241.52 259.956 240.896C259.364 240.256 258.556 239.936 257.532 239.936C256.508 239.936 255.692 240.256 255.084 240.896C254.492 241.52 254.196 242.424 254.196 243.608V251H251.46V237.776H254.196V239.288C254.644 238.744 255.212 238.32 255.9 238.016C256.604 237.712 257.348 237.56 258.132 237.56ZM270.238 240.008V247.328C270.238 247.824 270.35 248.184 270.574 248.408C270.814 248.616 271.214 248.72 271.774 248.72H273.454V251H271.294C270.062 251 269.118 250.712 268.462 250.136C267.806 249.56 267.478 248.624 267.478 247.328V240.008H265.918V237.776H267.478V234.488H270.238V237.776H273.454V240.008H270.238ZM57.0455 279.776C57.0455 280.352 57.0295 280.792 56.9975 281.096H46.1255C46.1735 282.088 46.4135 282.936 46.8455 283.64C47.2775 284.344 47.8455 284.88 48.5495 285.248C49.2535 285.6 50.0215 285.776 50.8535 285.776C51.9415 285.776 52.8535 285.512 53.5895 284.984C54.3415 284.456 54.8375 283.744 55.0775 282.848H56.8535C56.5335 284.128 55.8455 285.176 54.7895 285.992C53.7495 286.792 52.4375 287.192 50.8535 287.192C49.6215 287.192 48.5175 286.92 47.5415 286.376C46.5655 285.816 45.7975 285.032 45.2375 284.024C44.6935 283 44.4215 281.808 44.4215 280.448C44.4215 279.088 44.6935 277.896 45.2375 276.872C45.7815 275.848 46.5415 275.064 47.5175 274.52C48.4935 273.976 49.6055 273.704 50.8535 273.704C52.1015 273.704 53.1895 273.976 54.1175 274.52C55.0615 275.064 55.7815 275.8 56.2775 276.728C56.7895 277.64 57.0455 278.656 57.0455 279.776ZM55.3415 279.728C55.3575 278.752 55.1575 277.92 54.7415 277.232C54.3415 276.544 53.7895 276.024 53.0855 275.672C52.3815 275.32 51.6135 275.144 50.7815 275.144C49.5335 275.144 48.4695 275.544 47.5895 276.344C46.7095 277.144 46.2215 278.272 46.1255 279.728H55.3415ZM67.9672 278.336C68.9112 278.512 69.7112 278.992 70.3672 279.776C71.0232 280.56 71.3512 281.472 71.3512 282.512C71.3512 283.36 71.1352 284.128 70.7032 284.816C70.2872 285.488 69.6712 286.024 68.8552 286.424C68.0392 286.808 67.0632 287 65.9272 287H60.1192V270.224H65.7592C67.4552 270.224 68.7432 270.616 69.6232 271.4C70.5192 272.184 70.9672 273.2 70.9672 274.448C70.9672 275.488 70.6872 276.336 70.1272 276.992C69.5672 277.632 68.8472 278.08 67.9672 278.336ZM61.7992 277.64H65.7112C66.8472 277.64 67.7192 277.376 68.3272 276.848C68.9512 276.304 69.2632 275.56 69.2632 274.616C69.2632 273.688 68.9512 272.96 68.3272 272.432C67.7192 271.904 66.8232 271.64 65.6392 271.64H61.7992V277.64ZM65.8072 285.584C67.0232 285.584 67.9672 285.296 68.6392 284.72C69.3272 284.144 69.6712 283.352 69.6712 282.344C69.6712 281.336 69.3112 280.536 68.5912 279.944C67.8872 279.336 66.9352 279.032 65.7352 279.032H61.7992V285.584H65.8072ZM85.1675 275.048C85.1675 276.488 84.6955 277.648 83.7515 278.528C82.8075 279.408 81.3915 279.848 79.5035 279.848H76.1195V287H74.4395V270.224H79.5035C81.3755 270.224 82.7835 270.664 83.7275 271.544C84.6875 272.424 85.1675 273.592 85.1675 275.048ZM79.5035 278.408C82.1275 278.408 83.4395 277.288 83.4395 275.048C83.4395 273.928 83.1275 273.08 82.5035 272.504C81.8795 271.928 80.8795 271.64 79.5035 271.64H76.1195V278.408H79.5035ZM97.0584 270.224V271.616H89.6664V277.88H95.9064V279.272H89.6664V287H87.9864V270.224H97.0584ZM107.958 277.4V278.816H98.6223V277.4H107.958ZM113.924 276.8C114.356 275.888 115.02 275.144 115.916 274.568C116.828 273.992 117.9 273.704 119.132 273.704C120.332 273.704 121.404 273.984 122.348 274.544C123.292 275.088 124.028 275.872 124.556 276.896C125.1 277.904 125.372 279.08 125.372 280.424C125.372 281.768 125.1 282.952 124.556 283.976C124.028 285 123.284 285.792 122.324 286.352C121.38 286.912 120.316 287.192 119.132 287.192C117.884 287.192 116.804 286.912 115.892 286.352C114.996 285.776 114.34 285.032 113.924 284.12V287H112.268V269.24H113.924V276.8ZM123.668 280.424C123.668 279.336 123.452 278.4 123.02 277.616C122.604 276.816 122.028 276.208 121.292 275.792C120.556 275.376 119.724 275.168 118.796 275.168C117.9 275.168 117.076 275.384 116.324 275.816C115.588 276.248 115.004 276.864 114.572 277.664C114.14 278.464 113.924 279.392 113.924 280.448C113.924 281.504 114.14 282.432 114.572 283.232C115.004 284.032 115.588 284.648 116.324 285.08C117.076 285.512 117.9 285.728 118.796 285.728C119.724 285.728 120.556 285.52 121.292 285.104C122.028 284.672 122.604 284.056 123.02 283.256C123.452 282.44 123.668 281.496 123.668 280.424ZM127.695 280.424C127.695 279.08 127.959 277.904 128.487 276.896C129.031 275.872 129.775 275.088 130.719 274.544C131.679 273.984 132.759 273.704 133.959 273.704C135.207 273.704 136.279 273.992 137.175 274.568C138.087 275.144 138.743 275.88 139.143 276.776V273.896H140.823V287H139.143V284.096C138.727 284.992 138.063 285.736 137.151 286.328C136.255 286.904 135.183 287.192 133.935 287.192C132.751 287.192 131.679 286.912 130.719 286.352C129.775 285.792 129.031 285 128.487 283.976C127.959 282.952 127.695 281.768 127.695 280.424ZM139.143 280.448C139.143 279.392 138.927 278.464 138.495 277.664C138.063 276.864 137.471 276.248 136.719 275.816C135.983 275.384 135.167 275.168 134.271 275.168C133.343 275.168 132.511 275.376 131.775 275.792C131.039 276.208 130.455 276.816 130.023 277.616C129.607 278.4 129.399 279.336 129.399 280.424C129.399 281.496 129.607 282.44 130.023 283.256C130.455 284.056 131.039 284.672 131.775 285.104C132.511 285.52 133.343 285.728 134.271 285.728C135.167 285.728 135.983 285.512 136.719 285.08C137.471 284.648 138.063 284.032 138.495 283.232C138.927 282.432 139.143 281.504 139.143 280.448ZM149.17 287.192C147.666 287.192 146.434 286.848 145.474 286.16C144.53 285.456 144.002 284.504 143.89 283.304H145.618C145.698 284.04 146.042 284.64 146.65 285.104C147.274 285.552 148.106 285.776 149.146 285.776C150.058 285.776 150.77 285.56 151.282 285.128C151.81 284.696 152.074 284.16 152.074 283.52C152.074 283.072 151.93 282.704 151.642 282.416C151.354 282.128 150.986 281.904 150.538 281.744C150.106 281.568 149.514 281.384 148.762 281.192C147.786 280.936 146.994 280.68 146.386 280.424C145.778 280.168 145.258 279.792 144.826 279.296C144.41 278.784 144.202 278.104 144.202 277.256C144.202 276.616 144.394 276.024 144.778 275.48C145.162 274.936 145.706 274.504 146.41 274.184C147.114 273.864 147.914 273.704 148.81 273.704C150.218 273.704 151.354 274.064 152.218 274.784C153.082 275.488 153.546 276.464 153.61 277.712H151.93C151.882 276.944 151.578 276.328 151.018 275.864C150.474 275.384 149.722 275.144 148.762 275.144C147.914 275.144 147.226 275.344 146.698 275.744C146.17 276.144 145.906 276.64 145.906 277.232C145.906 277.744 146.058 278.168 146.362 278.504C146.682 278.824 147.074 279.08 147.538 279.272C148.002 279.448 148.626 279.648 149.41 279.872C150.354 280.128 151.106 280.376 151.666 280.616C152.226 280.856 152.706 281.208 153.106 281.672C153.506 282.136 153.714 282.752 153.73 283.52C153.73 284.224 153.538 284.856 153.154 285.416C152.77 285.96 152.234 286.392 151.546 286.712C150.858 287.032 150.066 287.192 149.17 287.192ZM168.749 279.776C168.749 280.352 168.733 280.792 168.701 281.096H157.829C157.877 282.088 158.117 282.936 158.549 283.64C158.981 284.344 159.549 284.88 160.253 285.248C160.957 285.6 161.725 285.776 162.557 285.776C163.645 285.776 164.557 285.512 165.293 284.984C166.045 284.456 166.541 283.744 166.781 282.848H168.557C168.237 284.128 167.549 285.176 166.493 285.992C165.453 286.792 164.141 287.192 162.557 287.192C161.325 287.192 160.221 286.92 159.245 286.376C158.269 285.816 157.501 285.032 156.941 284.024C156.397 283 156.125 281.808 156.125 280.448C156.125 279.088 156.397 277.896 156.941 276.872C157.485 275.848 158.245 275.064 159.221 274.52C160.197 273.976 161.309 273.704 162.557 273.704C163.805 273.704 164.893 273.976 165.821 274.52C166.765 275.064 167.485 275.8 167.981 276.728C168.493 277.64 168.749 278.656 168.749 279.776ZM167.045 279.728C167.061 278.752 166.861 277.92 166.445 277.232C166.045 276.544 165.493 276.024 164.789 275.672C164.085 275.32 163.317 275.144 162.485 275.144C161.237 275.144 160.173 275.544 159.293 276.344C158.413 277.144 157.925 278.272 157.829 279.728H167.045ZM171.054 280.424C171.054 279.08 171.326 277.904 171.87 276.896C172.414 275.872 173.158 275.088 174.102 274.544C175.062 273.984 176.142 273.704 177.342 273.704C178.494 273.704 179.534 273.984 180.462 274.544C181.39 275.104 182.07 275.832 182.502 276.728V269.24H184.182V287H182.502V284.072C182.102 284.984 181.446 285.736 180.534 286.328C179.622 286.904 178.55 287.192 177.318 287.192C176.118 287.192 175.038 286.912 174.078 286.352C173.134 285.792 172.39 285 171.846 283.976C171.318 282.952 171.054 281.768 171.054 280.424ZM182.502 280.448C182.502 279.392 182.286 278.464 181.854 277.664C181.422 276.864 180.83 276.248 180.078 275.816C179.342 275.384 178.526 275.168 177.63 275.168C176.702 275.168 175.87 275.376 175.134 275.792C174.398 276.208 173.814 276.816 173.382 277.616C172.966 278.4 172.758 279.336 172.758 280.424C172.758 281.496 172.966 282.44 173.382 283.256C173.814 284.056 174.398 284.672 175.134 285.104C175.87 285.52 176.702 285.728 177.63 285.728C178.526 285.728 179.342 285.512 180.078 285.08C180.83 284.648 181.422 284.032 181.854 283.232C182.286 282.432 182.502 281.504 182.502 280.448ZM199.116 287.192C197.612 287.192 196.38 286.848 195.42 286.16C194.476 285.456 193.948 284.504 193.836 283.304H195.564C195.644 284.04 195.988 284.64 196.596 285.104C197.22 285.552 198.052 285.776 199.092 285.776C200.004 285.776 200.716 285.56 201.228 285.128C201.756 284.696 202.02 284.16 202.02 283.52C202.02 283.072 201.876 282.704 201.588 282.416C201.3 282.128 200.932 281.904 200.484 281.744C200.052 281.568 199.46 281.384 198.708 281.192C197.732 280.936 196.94 280.68 196.332 280.424C195.724 280.168 195.204 279.792 194.772 279.296C194.356 278.784 194.148 278.104 194.148 277.256C194.148 276.616 194.34 276.024 194.724 275.48C195.108 274.936 195.652 274.504 196.356 274.184C197.06 273.864 197.86 273.704 198.756 273.704C200.164 273.704 201.3 274.064 202.164 274.784C203.028 275.488 203.492 276.464 203.556 277.712H201.876C201.828 276.944 201.524 276.328 200.964 275.864C200.42 275.384 199.668 275.144 198.708 275.144C197.86 275.144 197.172 275.344 196.644 275.744C196.116 276.144 195.852 276.64 195.852 277.232C195.852 277.744 196.004 278.168 196.308 278.504C196.628 278.824 197.02 279.08 197.484 279.272C197.948 279.448 198.572 279.648 199.356 279.872C200.3 280.128 201.052 280.376 201.612 280.616C202.172 280.856 202.652 281.208 203.052 281.672C203.452 282.136 203.66 282.752 203.676 283.52C203.676 284.224 203.484 284.856 203.1 285.416C202.716 285.96 202.18 286.392 201.492 286.712C200.804 287.032 200.012 287.192 199.116 287.192ZM208.494 276.776C208.91 275.896 209.566 275.168 210.462 274.592C211.374 274 212.454 273.704 213.702 273.704C214.886 273.704 215.95 273.984 216.894 274.544C217.854 275.088 218.598 275.872 219.126 276.896C219.67 277.904 219.942 279.08 219.942 280.424C219.942 281.768 219.67 282.952 219.126 283.976C218.598 285 217.854 285.792 216.894 286.352C215.95 286.912 214.886 287.192 213.702 287.192C212.47 287.192 211.398 286.904 210.486 286.328C209.574 285.736 208.91 285 208.494 284.12V293.192H206.838V273.896H208.494V276.776ZM218.238 280.424C218.238 279.336 218.022 278.4 217.59 277.616C217.174 276.816 216.598 276.208 215.862 275.792C215.126 275.376 214.294 275.168 213.366 275.168C212.47 275.168 211.646 275.384 210.894 275.816C210.158 276.248 209.574 276.864 209.142 277.664C208.71 278.464 208.494 279.392 208.494 280.448C208.494 281.504 208.71 282.432 209.142 283.232C209.574 284.032 210.158 284.648 210.894 285.08C211.646 285.512 212.47 285.728 213.366 285.728C214.294 285.728 215.126 285.52 215.862 285.104C216.598 284.672 217.174 284.056 217.59 283.256C218.022 282.44 218.238 281.496 218.238 280.424ZM222.265 280.424C222.265 279.08 222.529 277.904 223.057 276.896C223.601 275.872 224.345 275.088 225.289 274.544C226.249 273.984 227.329 273.704 228.529 273.704C229.777 273.704 230.849 273.992 231.745 274.568C232.657 275.144 233.313 275.88 233.713 276.776V273.896H235.393V287H233.713V284.096C233.297 284.992 232.633 285.736 231.721 286.328C230.825 286.904 229.753 287.192 228.505 287.192C227.321 287.192 226.249 286.912 225.289 286.352C224.345 285.792 223.601 285 223.057 283.976C222.529 282.952 222.265 281.768 222.265 280.424ZM233.713 280.448C233.713 279.392 233.497 278.464 233.065 277.664C232.633 276.864 232.041 276.248 231.289 275.816C230.553 275.384 229.737 275.168 228.841 275.168C227.913 275.168 227.081 275.376 226.345 275.792C225.609 276.208 225.025 276.816 224.593 277.616C224.177 278.4 223.969 279.336 223.969 280.424C223.969 281.496 224.177 282.44 224.593 283.256C225.025 284.056 225.609 284.672 226.345 285.104C227.081 285.52 227.913 285.728 228.841 285.728C229.737 285.728 230.553 285.512 231.289 285.08C232.041 284.648 232.633 284.032 233.065 283.232C233.497 282.432 233.713 281.504 233.713 280.448ZM245.373 273.656C246.941 273.656 248.221 274.144 249.213 275.12C250.205 276.08 250.701 277.48 250.701 279.32V287H249.045V279.512C249.045 278.088 248.685 277 247.965 276.248C247.261 275.496 246.293 275.12 245.061 275.12C243.797 275.12 242.789 275.52 242.037 276.32C241.285 277.12 240.909 278.296 240.909 279.848V287H239.229V273.896H240.909V276.128C241.325 275.328 241.925 274.72 242.709 274.304C243.493 273.872 244.381 273.656 245.373 273.656ZM258.928 287.192C257.424 287.192 256.192 286.848 255.232 286.16C254.288 285.456 253.76 284.504 253.648 283.304H255.376C255.456 284.04 255.8 284.64 256.408 285.104C257.032 285.552 257.864 285.776 258.904 285.776C259.816 285.776 260.528 285.56 261.04 285.128C261.568 284.696 261.832 284.16 261.832 283.52C261.832 283.072 261.688 282.704 261.4 282.416C261.112 282.128 260.744 281.904 260.296 281.744C259.864 281.568 259.272 281.384 258.52 281.192C257.544 280.936 256.752 280.68 256.144 280.424C255.536 280.168 255.016 279.792 254.584 279.296C254.168 278.784 253.96 278.104 253.96 277.256C253.96 276.616 254.152 276.024 254.536 275.48C254.92 274.936 255.464 274.504 256.168 274.184C256.872 273.864 257.672 273.704 258.568 273.704C259.976 273.704 261.112 274.064 261.976 274.784C262.84 275.488 263.304 276.464 263.368 277.712H261.688C261.64 276.944 261.336 276.328 260.776 275.864C260.232 275.384 259.48 275.144 258.52 275.144C257.672 275.144 256.984 275.344 256.456 275.744C255.928 276.144 255.664 276.64 255.664 277.232C255.664 277.744 255.816 278.168 256.12 278.504C256.44 278.824 256.832 279.08 257.296 279.272C257.76 279.448 258.384 279.648 259.168 279.872C260.112 280.128 260.864 280.376 261.424 280.616C261.984 280.856 262.464 281.208 262.864 281.672C263.264 282.136 263.472 282.752 263.488 283.52C263.488 284.224 263.296 284.856 262.912 285.416C262.528 285.96 261.992 286.392 261.304 286.712C260.616 287.032 259.824 287.192 258.928 287.192Z" fill="black"/>
<path d="M521.5 158L511.364 163.532L511.642 151.988L521.5 158ZM512.447 158.782C452.445 155.849 423.63 123.728 398.195 92.5912C372.731 61.4174 350.799 31.5009 304.5 31.5L304.5 29.5C351.899 29.501 374.412 60.3145 399.744 91.326C425.106 122.374 453.44 153.895 512.544 156.785L512.447 158.782Z" fill="black"/>
<path d="M521.5 157.5L511.471 163.223L511.53 151.676L521.5 157.5ZM512.486 158.454C452.847 157.836 424.315 151.083 398.977 144.482C373.726 137.904 351.72 131.499 305 131.498L305 129.498C351.978 129.499 374.179 135.956 399.481 142.547C424.695 149.115 453.062 155.839 512.507 156.454L512.486 158.454Z" fill="black"/>
<path d="M1041 157.002L1031 162.775L1031 151.228L1041 157.002ZM1002.49 157.002L1002.49 156.002L1002.49 156.002L1002.49 157.002ZM1032 158.002L1002.49 158.002L1002.49 156.002L1032 156.002L1032 158.002ZM1002.49 158.002C912.53 158.002 907.226 158.002 822 158L822 156C907.226 156.002 912.53 156.002 1002.49 156.002L1002.49 158.002Z" fill="black"/>
<path d="M1522.31 159.176L1522.32 160.176L1522.32 160.176L1522.31 159.176ZM1341 160.002L1351.03 165.73L1350.97 154.183L1341 160.002ZM1561 158L1522.31 158.176L1522.32 160.176L1561 160L1561 158ZM1522.31 158.176C1435.22 158.572 1427.11 158.609 1350 158.961L1350.01 160.961C1427.12 160.609 1435.23 160.572 1522.32 160.176L1522.31 158.176Z" fill="black"/>
<path d="M521.5 157L511.617 162.971L511.387 151.426L521.5 157ZM512.534 158.178C482.898 159.377 460.954 166.521 443.24 176.539C425.51 186.567 411.975 199.496 399.16 212.353C373.554 238.046 350.818 263.501 303.5 263.5L303.5 261.5C349.881 261.501 372.066 236.705 397.744 210.941C410.571 198.071 424.269 184.971 442.255 174.798C460.258 164.617 482.514 157.391 512.453 156.18L512.534 158.178Z" fill="black"/>
<defs>
<filter id="filter0_d_903_41" x="517" y="100" width="308" height="128" filterUnits="userSpaceOnUse" color-interpolation-filters="sRGB">
<feFlood flood-opacity="0" result="BackgroundImageFix"/>
<feColorMatrix in="SourceAlpha" type="matrix" values="0 0 0 0 0 0 0 0 0 0 0 0 0 0 0 0 0 0 127 0" result="hardAlpha"/>
<feOffset dy="4"/>
<feGaussianBlur stdDeviation="2"/>
<feComposite in2="hardAlpha" operator="out"/>
<feColorMatrix type="matrix" values="0 0 0 0 0 0 0 0 0 0 0 0 0 0 0 0 0 0 0.25 0"/>
<feBlend mode="normal" in2="BackgroundImageFix" result="effect1_dropShadow_903_41"/>
<feBlend mode="normal" in="SourceGraphic" in2="effect1_dropShadow_903_41" result="shape"/>
</filter>
<filter id="filter1_d_903_41" x="1037" y="102" width="308" height="124.129" filterUnits="userSpaceOnUse" color-interpolation-filters="sRGB">
<feFlood flood-opacity="0" result="BackgroundImageFix"/>
<feColorMatrix in="SourceAlpha" type="matrix" values="0 0 0 0 0 0 0 0 0 0 0 0 0 0 0 0 0 0 127 0" result="hardAlpha"/>
<feOffset dy="4"/>
<feGaussianBlur stdDeviation="2"/>
<feComposite in2="hardAlpha" operator="out"/>
<feColorMatrix type="matrix" values="0 0 0 0 0 0 0 0 0 0 0 0 0 0 0 0 0 0 0.25 0"/>
<feBlend mode="normal" in2="BackgroundImageFix" result="effect1_dropShadow_903_41"/>
<feBlend mode="normal" in="SourceGraphic" in2="effect1_dropShadow_903_41" result="shape"/>
</filter>
<filter id="filter2_d_903_41" x="1557" y="102" width="308" height="124.129" filterUnits="userSpaceOnUse" color-interpolation-filters="sRGB">
<feFlood flood-opacity="0" result="BackgroundImageFix"/>
<feColorMatrix in="SourceAlpha" type="matrix" values="0 0 0 0 0 0 0 0 0 0 0 0 0 0 0 0 0 0 127 0" result="hardAlpha"/>
<feOffset dy="4"/>
<feGaussianBlur stdDeviation="2"/>
<feComposite in2="hardAlpha" operator="out"/>
<feColorMatrix type="matrix" values="0 0 0 0 0 0 0 0 0 0 0 0 0 0 0 0 0 0 0.25 0"/>
<feBlend mode="normal" in2="BackgroundImageFix" result="effect1_dropShadow_903_41"/>
<feBlend mode="normal" in="SourceGraphic" in2="effect1_dropShadow_903_41" result="shape"/>
</filter>
<filter id="filter3_d_903_41" x="0" y="100" width="308" height="68" filterUnits="userSpaceOnUse" color-interpolation-filters="sRGB">
<feFlood flood-opacity="0" result="BackgroundImageFix"/>
<feColorMatrix in="SourceAlpha" type="matrix" values="0 0 0 0 0 0 0 0 0 0 0 0 0 0 0 0 0 0 127 0" result="hardAlpha"/>
<feOffset dy="4"/>
<feGaussianBlur stdDeviation="2"/>
<feComposite in2="hardAlpha" operator="out"/>
<feColorMatrix type="matrix" values="0 0 0 0 0 0 0 0 0 0 0 0 0 0 0 0 0 0 0.25 0"/>
<feBlend mode="normal" in2="BackgroundImageFix" result="effect1_dropShadow_903_41"/>
<feBlend mode="normal" in="SourceGraphic" in2="effect1_dropShadow_903_41" result="shape"/>
</filter>
<filter id="filter4_d_903_41" x="0" y="0" width="308" height="68" filterUnits="userSpaceOnUse" color-interpolation-filters="sRGB">
<feFlood flood-opacity="0" result="BackgroundImageFix"/>
<feColorMatrix in="SourceAlpha" type="matrix" values="0 0 0 0 0 0 0 0 0 0 0 0 0 0 0 0 0 0 127 0" result="hardAlpha"/>
<feOffset dy="4"/>
<feGaussianBlur stdDeviation="2"/>
<feComposite in2="hardAlpha" operator="out"/>
<feColorMatrix type="matrix" values="0 0 0 0 0 0 0 0 0 0 0 0 0 0 0 0 0 0 0.25 0"/>
<feBlend mode="normal" in2="BackgroundImageFix" result="effect1_dropShadow_903_41"/>
<feBlend mode="normal" in="SourceGraphic" in2="effect1_dropShadow_903_41" result="shape"/>
</filter>
<filter id="filter5_d_903_41" x="0" y="201" width="308" height="128" filterUnits="userSpaceOnUse" color-interpolation-filters="sRGB">
<feFlood flood-opacity="0" result="BackgroundImageFix"/>
<feColorMatrix in="SourceAlpha" type="matrix" values="0 0 0 0 0 0 0 0 0 0 0 0 0 0 0 0 0 0 127 0" result="hardAlpha"/>
<feOffset dy="4"/>
<feGaussianBlur stdDeviation="2"/>
<feComposite in2="hardAlpha" operator="out"/>
<feColorMatrix type="matrix" values="0 0 0 0 0 0 0 0 0 0 0 0 0 0 0 0 0 0 0.25 0"/>
<feBlend mode="normal" in2="BackgroundImageFix" result="effect1_dropShadow_903_41"/>
<feBlend mode="normal" in="SourceGraphic" in2="effect1_dropShadow_903_41" result="shape"/>
</filter>
</defs>
</svg>
